<svg enable-background="new 0 0 256 256" height="512" viewBox="0 0 256 256" width="512" xmlns="http://www.w3.org/2000/svg"><g id="Layer_31"><g><g><g><path d="m200.991 239.551c-4.149.773-7.419 3.976-8.208 8.041-.04.204-.325.204-.364 0-.789-4.065-4.059-7.268-8.208-8.041-.208-.039-.208-.318 0-.357 4.149-.773 7.419-3.976 8.208-8.041.04-.204.325-.204.364 0 .789 4.065 4.059 7.268 8.208 8.041.209.039.209.318 0 .357z" fill="#70d6f9"/></g></g><g><g><path d="m230.183 31.639c-3.221.6-5.76 3.087-6.372 6.243-.031.158-.252.158-.283 0-.612-3.156-3.151-5.643-6.372-6.243-.162-.03-.162-.247 0-.277 3.221-.6 5.76-3.087 6.372-6.243.031-.158.252-.158.283 0 .612 3.156 3.151 5.643 6.372 6.243.161.03.161.246 0 .277z" fill="#f5c84c"/></g></g><g><g><path d="m40.528 14.758h-1.824v-1.824c0-1.366-1.107-2.473-2.473-2.473s-2.473 1.107-2.473 2.473v1.824h-1.824c-1.366 0-2.473 1.107-2.473 2.473s1.107 2.473 2.473 2.473h1.824v1.824c0 1.366 1.107 2.473 2.473 2.473s2.473-1.107 2.473-2.473v-1.824h1.824c1.366 0 2.473-1.107 2.473-2.473s-1.108-2.473-2.473-2.473z" fill="#70d6f9"/></g></g><g><g><circle cx="216.439" cy="232.627" fill="#87d147" r="3.377"/></g></g><g><g><circle cx="65.439" cy="232.377" fill="#f5c84c" r="3.377"/></g></g><g><g><circle cx="62.439" cy="3.377" fill="#fc657e" r="3.377"/></g></g><g><g><path d="m166.421 243.004h-76.842c-2.898 0-5.248 2.35-5.248 5.248s2.35 5.248 5.248 5.248h76.841c2.898 0 5.248-2.35 5.248-5.248.001-2.898-2.349-5.248-5.247-5.248z" fill="#edf4fc"/></g></g><g><g><path d="m106.785 218.953h42.43v24.051h-42.43z" fill="#c7d7e5"/></g></g><g><g><path d="m223.616 56.486h-20.609v101.822c0 2.516-2.04 4.556-4.556 4.556h-140.903c-2.516 0-4.556-2.04-4.556-4.556v-101.822h-20.608c-6.162 0-11.204 5.042-11.204 11.204v140.057c0 6.163 5.042 11.205 11.204 11.205h191.232c6.162 0 11.204-5.042 11.204-11.205v-140.056c.001-6.163-5.042-11.205-11.204-11.205z" fill="#5290db"/></g></g><g><g><path d="m21.179 189.074v18.674c0 6.163 5.042 11.205 11.205 11.205h191.232c6.162 0 11.205-5.042 11.205-11.205v-18.674z" fill="#edf4fc"/></g></g><g><g><path d="m223.616 65.823h-20.609v92.485c0 2.516-2.04 4.556-4.556 4.556h-140.903c-2.516 0-4.556-2.04-4.556-4.556v-92.485h-20.608c-1.027 0-1.867.84-1.867 1.867v121.383h194.967v-121.382c0-1.027-.841-1.868-1.868-1.868z" fill="#70d6f9"/></g></g><g><g><path d="m30.517 178.578h194.967v10.496h-194.967z" fill="#5290db"/></g></g><g><g><path d="m128 198.487c-3.052 0-5.526 2.474-5.526 5.527 0 3.052 2.474 5.527 5.526 5.527s5.526-2.474 5.526-5.527c0-3.053-2.474-5.527-5.526-5.527z" fill="#c7d7e5"/></g></g><g><g><path d="m30.517 178.578h22.064v10.496h-22.064z" fill="#fcdd86"/></g></g><g><g><path d="m166.421 256h-76.842c-4.272 0-7.748-3.476-7.748-7.748s3.476-7.748 7.748-7.748h76.842c4.272 0 7.748 3.476 7.748 7.748s-3.476 7.748-7.748 7.748zm-76.842-10.496c-1.515 0-2.748 1.233-2.748 2.748s1.233 2.748 2.748 2.748h76.842c1.515 0 2.748-1.233 2.748-2.748s-1.232-2.748-2.748-2.748z"/></g></g><g><g><path d="m149.215 244.504c-1.381 0-2.5-1.119-2.5-2.5v-22.051c0-1.381 1.119-2.5 2.5-2.5s2.5 1.119 2.5 2.5v22.051c0 1.381-1.119 2.5-2.5 2.5z"/></g></g><g><g><path d="m106.785 244.504c-1.381 0-2.5-1.119-2.5-2.5v-22.051c0-1.381 1.119-2.5 2.5-2.5s2.5 1.119 2.5 2.5v22.051c0 1.381-1.119 2.5-2.5 2.5z"/></g></g><g><g><path d="m21.18 192.292c-1.381 0-2.5-1.119-2.5-2.5v-122.101c0-7.557 6.147-13.705 13.704-13.705h19.897c1.381 0 2.5 1.119 2.5 2.5s-1.119 2.5-2.5 2.5h-19.897c-4.799 0-8.704 3.905-8.704 8.705v122.101c0 1.38-1.119 2.5-2.5 2.5z"/></g></g><g><g><path d="m234.82 191.583c-1.381 0-2.5-1.119-2.5-2.5v-121.392c0-4.8-3.905-8.705-8.704-8.705h-19.866c-1.381 0-2.5-1.119-2.5-2.5s1.119-2.5 2.5-2.5h19.866c7.557 0 13.704 6.148 13.704 13.705v121.393c0 1.38-1.119 2.499-2.5 2.499z"/></g></g><g><g><path d="m223.616 221.453h-191.232c-7.557 0-13.705-6.148-13.705-13.705v-18.674c0-1.381 1.119-2.5 2.5-2.5h213.642c1.381 0 2.5 1.119 2.5 2.5v18.674c0 7.557-6.148 13.705-13.705 13.705zm-199.937-29.879v16.174c0 4.8 3.905 8.705 8.705 8.705h191.232c4.8 0 8.705-3.905 8.705-8.705v-16.174z"/></g></g><g><g><path d="m225.483 190.583c-1.381 0-2.5-1.119-2.5-2.5v-119.76h-18.775c-1.381 0-2.5-1.119-2.5-2.5s1.119-2.5 2.5-2.5h19.408c2.408 0 4.367 1.959 4.367 4.368v120.392c0 1.381-1.119 2.5-2.5 2.5z"/></g></g><g><g><path d="m30.517 190.292c-1.381 0-2.5-1.119-2.5-2.5v-120.101c0-2.408 1.959-4.368 4.367-4.368h19.897c1.381 0 2.5 1.119 2.5 2.5s-1.119 2.5-2.5 2.5h-19.264v119.469c0 1.381-1.12 2.5-2.5 2.5z"/></g></g><g><g><path d="m224.667 181.078h-193.292c-1.381 0-2.5-1.119-2.5-2.5s1.119-2.5 2.5-2.5h193.292c1.381 0 2.5 1.119 2.5 2.5s-1.12 2.5-2.5 2.5z"/></g></g><g><g><path d="m128 212.04c-4.426 0-8.026-3.601-8.026-8.026s3.601-8.027 8.026-8.027 8.026 3.601 8.026 8.027-3.6 8.026-8.026 8.026zm0-11.054c-1.669 0-3.026 1.358-3.026 3.027s1.357 3.026 3.026 3.026 3.026-1.357 3.026-3.026-1.357-3.027-3.026-3.027z"/></g></g><g><g><path d="m52.581 190.958c-1.381 0-2.5-1.119-2.5-2.5v-9.208c0-1.381 1.119-2.5 2.5-2.5s2.5 1.119 2.5 2.5v9.208c0 1.381-1.119 2.5-2.5 2.5z"/></g></g><g><g><path d="m52.992 38.172v120.136c0 2.516 2.04 4.556 4.556 4.556h140.903c2.516 0 4.556-2.04 4.556-4.556v-120.136z" fill="#fcdd86"/></g></g><g><g><path d="m198.452 18.188h-140.904c-2.516 0-4.556 2.04-4.556 4.556v15.429h150.015v-15.43c.001-2.516-2.039-4.555-4.555-4.555z" fill="#5290db"/></g></g><g><g><path d="m72.262 18.188h-14.714c-2.516 0-4.556 2.04-4.556 4.556v15.429h19.269v-19.985z" fill="#fc657e"/></g></g><g><g><path d="m172.604 30.68h-88.352c-1.381 0-2.5-1.119-2.5-2.5s1.119-2.5 2.5-2.5h88.353c1.381 0 2.5 1.119 2.5 2.5s-1.12 2.5-2.501 2.5z"/></g></g><g><g><path d="m192.978 30.68h-9.322c-1.381 0-2.5-1.119-2.5-2.5s1.119-2.5 2.5-2.5h9.322c1.381 0 2.5 1.119 2.5 2.5s-1.12 2.5-2.5 2.5z"/></g></g><g><g><path d="m198.452 165.364h-140.904c-3.891 0-7.056-3.165-7.056-7.056v-120.136c0-1.381 1.119-2.5 2.5-2.5s2.5 1.119 2.5 2.5v120.136c0 1.133.922 2.056 2.056 2.056h140.903c1.133 0 2.056-.922 2.056-2.056v-120.136c0-1.381 1.119-2.5 2.5-2.5s2.5 1.119 2.5 2.5v120.136c0 3.891-3.165 7.056-7.055 7.056z"/></g></g><g><g><path d="m203.007 40.672h-150.014c-1.381 0-2.5-1.119-2.5-2.5v-15.429c0-3.891 3.165-7.056 7.056-7.056h140.903c3.891 0 7.056 3.165 7.056 7.056v15.429c-.001 1.381-1.12 2.5-2.501 2.5zm-147.514-5h145.015v-12.929c0-1.133-.922-2.056-2.056-2.056h-140.904c-1.133 0-2.056.922-2.056 2.056v12.929z"/></g></g><g><g><path d="m72.262 39.688c-1.381 0-2.5-1.119-2.5-2.5v-18.188c0-1.381 1.119-2.5 2.5-2.5s2.5 1.119 2.5 2.5v18.187c0 1.381-1.119 2.501-2.5 2.501z"/></g></g><g><g><path d="m184.625 60.407h-71.474c-1.381 0-2.5-1.119-2.5-2.5s1.119-2.5 2.5-2.5h71.474c1.381 0 2.5 1.119 2.5 2.5s-1.119 2.5-2.5 2.5z"/></g></g><g><g><path d="m103.868 60.407h-13.057c-1.381 0-2.5-1.119-2.5-2.5s1.119-2.5 2.5-2.5h13.057c1.381 0 2.5 1.119 2.5 2.5s-1.119 2.5-2.5 2.5z"/></g></g><g><g><path d="m184.625 72.288h-42.769c-1.381 0-2.5-1.119-2.5-2.5s1.119-2.5 2.5-2.5h42.769c1.381 0 2.5 1.119 2.5 2.5s-1.119 2.5-2.5 2.5z"/></g></g><g><g><path d="m132.237 72.288h-41.426c-1.381 0-2.5-1.119-2.5-2.5s1.119-2.5 2.5-2.5h41.426c1.381 0 2.5 1.119 2.5 2.5s-1.119 2.5-2.5 2.5z"/></g></g><g><g><path d="m184.625 84.169h-13.775c-1.381 0-2.5-1.119-2.5-2.5s1.119-2.5 2.5-2.5h13.775c1.381 0 2.5 1.119 2.5 2.5s-1.119 2.5-2.5 2.5z"/></g></g><g><g><path d="m161.46 84.169h-70.649c-1.381 0-2.5-1.119-2.5-2.5s1.119-2.5 2.5-2.5h70.649c1.381 0 2.5 1.119 2.5 2.5s-1.119 2.5-2.5 2.5z"/></g></g><g><g><path d="m184.625 96.05h-60.637c-1.381 0-2.5-1.119-2.5-2.5s1.119-2.5 2.5-2.5h60.637c1.381 0 2.5 1.119 2.5 2.5s-1.119 2.5-2.5 2.5z"/></g></g><g><g><path d="m114.35 96.05h-23.539c-1.381 0-2.5-1.119-2.5-2.5s1.119-2.5 2.5-2.5h23.539c1.381 0 2.5 1.119 2.5 2.5s-1.119 2.5-2.5 2.5z"/></g></g><g><g><path d="m184.625 143.05h-42.769c-1.381 0-2.5-1.119-2.5-2.5s1.119-2.5 2.5-2.5h42.769c1.381 0 2.5 1.119 2.5 2.5s-1.119 2.5-2.5 2.5z"/></g></g><g><g><path d="m132.237 143.05h-41.426c-1.381 0-2.5-1.119-2.5-2.5s1.119-2.5 2.5-2.5h41.426c1.381 0 2.5 1.119 2.5 2.5s-1.119 2.5-2.5 2.5z"/></g></g><g><g><path d="m184.625 131.169h-13.775c-1.381 0-2.5-1.119-2.5-2.5s1.119-2.5 2.5-2.5h13.775c1.381 0 2.5 1.119 2.5 2.5s-1.119 2.5-2.5 2.5z"/></g></g><g><g><path d="m161.46 131.169h-70.649c-1.381 0-2.5-1.119-2.5-2.5s1.119-2.5 2.5-2.5h70.649c1.381 0 2.5 1.119 2.5 2.5s-1.119 2.5-2.5 2.5z"/></g></g><g><g><path d="m184.625 119.288h-60.637c-1.381 0-2.5-1.119-2.5-2.5s1.119-2.5 2.5-2.5h60.637c1.381 0 2.5 1.119 2.5 2.5s-1.119 2.5-2.5 2.5z"/></g></g><g><g><path d="m114.35 119.288h-23.539c-1.381 0-2.5-1.119-2.5-2.5s1.119-2.5 2.5-2.5h23.539c1.381 0 2.5 1.119 2.5 2.5s-1.119 2.5-2.5 2.5z"/></g></g><g><g><path d="m184.625 107.931h-42.769c-1.381 0-2.5-1.119-2.5-2.5s1.119-2.5 2.5-2.5h42.769c1.381 0 2.5 1.119 2.5 2.5s-1.119 2.5-2.5 2.5z"/></g></g><g><g><path d="m132.237 107.931h-41.426c-1.381 0-2.5-1.119-2.5-2.5s1.119-2.5 2.5-2.5h41.426c1.381 0 2.5 1.119 2.5 2.5s-1.119 2.5-2.5 2.5z"/></g></g><g><g><path d="m78.923 60.407h-7.548c-1.381 0-2.5-1.119-2.5-2.5s1.119-2.5 2.5-2.5h7.548c1.381 0 2.5 1.119 2.5 2.5s-1.119 2.5-2.5 2.5z"/></g></g><g><g><path d="m78.923 72.288h-7.548c-1.381 0-2.5-1.119-2.5-2.5s1.119-2.5 2.5-2.5h7.548c1.381 0 2.5 1.119 2.5 2.5s-1.119 2.5-2.5 2.5z"/></g></g><g><g><path d="m78.923 84.169h-7.548c-1.381 0-2.5-1.119-2.5-2.5s1.119-2.5 2.5-2.5h7.548c1.381 0 2.5 1.119 2.5 2.5s-1.119 2.5-2.5 2.5z"/></g></g><g><g><path d="m78.923 96.05h-7.548c-1.381 0-2.5-1.119-2.5-2.5s1.119-2.5 2.5-2.5h7.548c1.381 0 2.5 1.119 2.5 2.5s-1.119 2.5-2.5 2.5z"/></g></g><g><g><path d="m78.923 143.05h-7.548c-1.381 0-2.5-1.119-2.5-2.5s1.119-2.5 2.5-2.5h7.548c1.381 0 2.5 1.119 2.5 2.5s-1.119 2.5-2.5 2.5z"/></g></g><g><g><path d="m78.923 131.169h-7.548c-1.381 0-2.5-1.119-2.5-2.5s1.119-2.5 2.5-2.5h7.548c1.381 0 2.5 1.119 2.5 2.5s-1.119 2.5-2.5 2.5z"/></g></g><g><g><path d="m78.923 119.288h-7.548c-1.381 0-2.5-1.119-2.5-2.5s1.119-2.5 2.5-2.5h7.548c1.381 0 2.5 1.119 2.5 2.5s-1.119 2.5-2.5 2.5z"/></g></g><g><g><path d="m78.923 107.931h-7.548c-1.381 0-2.5-1.119-2.5-2.5s1.119-2.5 2.5-2.5h7.548c1.381 0 2.5 1.119 2.5 2.5s-1.119 2.5-2.5 2.5z"/></g></g></g></g></svg>