<svg id="filled_outline" height="512" viewBox="0 0 512 512" width="512" xmlns="http://www.w3.org/2000/svg" data-name="filled outline"><path d="m479.94586 368v104a16 16 0 0 1 -16 16h-416a16 16 0 0 1 -16-16v-104z" fill="#a6bce3"/><path d="m479.94586 136v272a16 16 0 0 1 -16 16h-416a16 16 0 0 1 -16-16v-272z" fill="#cad8ed"/><path d="m31.94586 136v-64a16 16 0 0 1 16-16h416a16 16 0 0 1 16 16v64z" fill="#ed6445"/><path d="m479.94586 360h-48a16 16 0 0 0 -16 16v48z" fill="#e4e9f2"/><path d="m231.946 184v48h-144v144h192v-48h144v-144z" fill="#5771e5"/><g fill="#e4e9f2"><rect height="72" rx="16" width="32" x="79.946" y="24"/><rect height="72" rx="16" width="32" x="159.946" y="24"/><rect height="72" rx="16" width="32" x="239.946" y="24"/><rect height="72" rx="16" width="32" x="319.946" y="24"/><rect height="72" rx="16" width="32" x="399.946" y="24"/></g><path d="m415.94586 424 64-64v48a16 16 0 0 1 -16 16z" fill="#cad8ed"/><path d="m48 496h416a24.0275 24.0275 0 0 0 24-24v-400a24.0275 24.0275 0 0 0 -24-24h-24v-8a24 24 0 0 0 -48 0v8h-32v-8a24 24 0 0 0 -48 0v8h-32v-8a24 24 0 0 0 -48 0v8h-32v-8a24 24 0 0 0 -48 0v8h-32v-8a24 24 0 0 0 -48 0v8h-24a24.0275 24.0275 0 0 0 -24 24v400a24.0275 24.0275 0 0 0 24 24zm416-16h-416a8.00917 8.00917 0 0 1 -8-8v-9.37622a23.88212 23.88212 0 0 0 8 1.37622h88v-16h-88a8.00917 8.00917 0 0 1 -8-8v-9.37622a23.88212 23.88212 0 0 0 8 1.37622h416a23.88212 23.88212 0 0 0 8-1.37622v9.37622a8.00917 8.00917 0 0 1 -8 8h-312v16h312a23.88505 23.88505 0 0 0 8-1.3761v9.3761a8.00917 8.00917 0 0 1 -8 8zm8-100.68652v28.68652a8.00917 8.00917 0 0 1 -8 8h-28.68652zm-48 25.37252v-28.686a8.00917 8.00917 0 0 1 8-8h28.686zm-16-364.686a8 8 0 0 1 16 0v40a8 8 0 0 1 -16 0zm-80 0a8 8 0 0 1 16 0v40a8 8 0 0 1 -16 0zm-80 0a8 8 0 0 1 16 0v40a8 8 0 0 1 -16 0zm-80 0a8 8 0 0 1 16 0v40a8 8 0 0 1 -16 0zm-80 0a8 8 0 0 1 16 0v40a8 8 0 0 1 -16 0zm-48 32a8.00917 8.00917 0 0 1 8-8h24v16a24 24 0 0 0 48 0v-16h32v16a24 24 0 0 0 48 0v-16h32v16a24 24 0 0 0 48 0v-16h32v16a24 24 0 0 0 48 0v-16h32v16a24 24 0 0 0 48 0v-16h24a8.00917 8.00917 0 0 1 8 8v56h-416v16h416v208h-40a24.0275 24.0275 0 0 0 -24 24v40h-360a8.00917 8.00917 0 0 1 -8-8z"/><path d="m112 192h16v16h-16z"/><path d="m152 192h16v16h-16z"/><path d="m192 192h16v16h-16z"/><path d="m88 384h192a7.99977 7.99977 0 0 0 8-8v-40h136a7.99977 7.99977 0 0 0 8-8v-144a7.99977 7.99977 0 0 0 -8-8h-192a7.99977 7.99977 0 0 0 -8 8v40h-136a7.99977 7.99977 0 0 0 -8 8v144a7.99977 7.99977 0 0 0 8 8zm152-144h176v32h-176zm80 48v32h-128v-32zm-144 32h-32v-32h32zm-48 0h-32v-32h32zm-32 16h128v32h-128zm176 32h-32v-32h32zm64-80h32v32h-32zm80 32h-32v-32h32zm0-96h-32v-32h32zm-48 0h-80v-32h80zm-128-32h32v32h-32zm-16 80h-32v-32h32zm-48 0h-32v-32h32zm-80-32h32v32h-32z"/><path d="m304 352h16v16h-16z"/><path d="m344 352h16v16h-16z"/><path d="m384 352h16v16h-16z"/></svg>