<?xml version="1.0" encoding="iso-8859-1"?>
<!-- Generator: Adobe Illustrator 19.0.0, SVG Export Plug-In . SVG Version: 6.00 Build 0)  -->
<svg version="1.1" id="Capa_1" xmlns="http://www.w3.org/2000/svg" xmlns:xlink="http://www.w3.org/1999/xlink" x="0px" y="0px"
	 viewBox="0 0 512.055 512.055" style="enable-background:new 0 0 512.055 512.055;" xml:space="preserve">
<path style="fill:#455A64;" d="M256.055,3.066C114.67,3.337,0.275,118.172,0.546,259.556
	c0.229,119.575,83.206,223.063,199.871,249.28c5.752,1.272,11.446-2.359,12.719-8.111c0.167-0.755,0.251-1.526,0.252-2.3v-58.027
	c0-5.891-4.776-10.667-10.667-10.667h-21.333c-26.624,0-44.8-25.237-60.736-47.509l-4.907-6.784
	c7.177,4.009,14.037,8.559,20.523,13.611c12.002,11.177,27.445,17.947,43.797,19.2c16.081,2.238,30.931-8.983,33.169-25.064
	c0.313-2.249,0.364-4.526,0.153-6.787v-7.445c0.001-4.766-3.16-8.955-7.744-10.261c-59.179-16.747-98.923-61.077-98.923-110.293
	c0.441-26.629,11.364-52.009,30.4-70.635c3.073-3.167,3.878-7.899,2.027-11.904c-7.761-17.576-6.594-37.812,3.136-54.379
	c14.974,6.031,28.355,15.434,39.104,27.477c2.893,3.433,7.627,4.687,11.84,3.136c40.626-14.648,85.092-14.648,125.717,0
	c4.195,1.521,8.893,0.269,11.776-3.136c10.74-12.049,24.114-21.459,39.083-27.499c9.73,16.567,10.897,36.803,3.136,54.379
	c-1.852,4.005-1.046,8.737,2.027,11.904c19.049,18.627,29.981,44.017,30.421,70.656c0,51.669-44.139,97.941-107.371,112.512
	c-5.741,1.32-9.326,7.044-8.006,12.785c0.208,0.904,0.532,1.776,0.966,2.596c5.976,13.43,8.632,28.101,7.744,42.773v79.36
	c0,5.891,4.776,10.667,10.667,10.667c0.775-0.003,1.547-0.089,2.304-0.256c137.945-30.999,224.642-167.955,193.643-305.899
	C479.118,86.271,375.63,3.295,256.055,3.066z"/>
<path d="M309.388,509.093c-5.891,0-10.667-4.776-10.667-10.667v-79.36c0.888-14.673-1.768-29.343-7.744-42.773
	c-2.754-5.208-0.764-11.662,4.444-14.416c0.82-0.433,1.692-0.758,2.596-0.966c63.232-14.571,107.371-60.843,107.371-112.512
	c-0.435-26.636-11.359-52.025-30.4-70.656c-3.073-3.167-3.878-7.899-2.027-11.904c7.761-17.576,6.594-37.812-3.136-54.379
	c-14.976,6.037-28.358,15.447-39.104,27.499c-2.893,3.433-7.627,4.687-11.84,3.136c-40.626-14.648-85.092-14.648-125.717,0
	c-4.195,1.521-8.893,0.269-11.776-3.136c-10.749-12.044-24.13-21.447-39.104-27.477c-9.73,16.567-10.897,36.803-3.136,54.379
	c1.852,4.005,1.046,8.737-2.027,11.904c-19.036,18.625-29.959,44.006-30.4,70.635c0,49.216,39.744,93.547,98.923,110.293
	c4.584,1.306,7.745,5.495,7.744,10.261v7.445c1.594,16.157-10.213,30.547-26.37,32.141c-2.315,0.228-4.649,0.181-6.953-0.141h-0.213
	c-16.26-1.37-31.598-8.127-43.584-19.2c-6.485-5.051-13.346-9.601-20.523-13.611l4.907,6.784
	c15.936,22.144,34.112,47.36,60.736,47.36h21.333c5.891,0,10.667,4.776,10.667,10.667v58.027c0.001,3.235-1.467,6.295-3.989,8.32
	c-2.525,2.017-5.819,2.8-8.981,2.133C62.412,478.152-24.554,341.366,6.174,203.361S173.687-21.61,311.692,9.117
	c117.105,26.074,200.394,129.976,200.363,249.949c-0.607,119.71-83.635,223.212-200.363,249.771
	C310.936,509.003,310.163,509.089,309.388,509.093z M314.892,378.511c3.779,13.176,5.52,26.852,5.163,40.555v65.664
	c124.69-35.346,197.117-165.081,161.771-289.771S316.745-2.158,192.055,33.188C91.041,61.823,21.34,154.072,21.388,259.066
	C21.943,363.81,91.42,455.676,192.055,484.73v-33.664h-10.667c-37.568,0-60.011-31.253-78.059-56.384
	c-10.24-14.229-20.8-28.949-28.608-28.949c-5.891,0-10.667-4.776-10.667-10.667s4.776-10.667,10.667-10.667
	c27.249-0.042,53.602,9.727,74.24,27.52c8.828,8.508,20.236,13.837,32.427,15.147c2.827,0.368,5.693-0.283,8.085-1.835
	c1.882-2.364,2.803-5.35,2.581-8.363c-64.149-21.056-106.667-71.851-106.667-128.448c0.264-29.772,11.542-58.392,31.659-80.341
	c-9.398-26.198-4.005-55.425,14.123-76.544c2.683-2.684,6.591-3.74,10.261-2.773c19.354,5.958,36.94,16.598,51.2,30.976
	c41.205-13.269,85.536-13.269,126.741,0c14.26-14.378,31.846-25.018,51.2-30.976c3.67-0.967,7.578,0.089,10.261,2.773
	c18.145,21.111,23.539,50.348,14.123,76.544c20.151,21.928,31.467,50.541,31.765,80.32
	C426.722,306.597,381.324,358.693,314.892,378.511z"/>
<g>
</g>
<g>
</g>
<g>
</g>
<g>
</g>
<g>
</g>
<g>
</g>
<g>
</g>
<g>
</g>
<g>
</g>
<g>
</g>
<g>
</g>
<g>
</g>
<g>
</g>
<g>
</g>
<g>
</g>
</svg>
