<svg id="Capa_1" enable-background="new 0 0 512 512" height="512" viewBox="0 0 512 512" width="512" xmlns="http://www.w3.org/2000/svg"><g><g><circle cx="237.158" cy="237.256" fill="#eaf6ff" r="229.676"/></g><g><path d="m466.833 237.251c0 126.852-102.828 229.68-229.68 229.68-13.189 0-26.129-1.117-38.709-3.252 5.507.399 11.074.599 16.691.599 126.852 0 229.68-102.828 229.68-229.68 0-113.653-82.556-208.021-190.981-226.418 119.07 8.539 212.999 107.836 212.999 229.071z" fill="#d8ecfe"/></g><g><path d="m431.651 115.044c-4.312 9.839-8.862 19.567-13.653 29.176-5.002 10.032-11.046 20.673-21.41 24.938-10.318 4.256-22.405 1.05-33.008 4.523-9.986 3.28-17.605 12.814-18.6 23.271-.995 10.465 4.689 21.262 13.883 26.357 6.117 3.39 13.966 4.8 17.633 10.76 4.431 7.213-.534 17.236-8.042 21.143-7.517 3.906-16.472 3.363-24.901 2.552-32.667-3.16-72.834-6.034-103.271-19.125-24.026-10.336-19.825-37.992-15.606-60.959 2.018-10.954 10.806-30.373 6.946-40.747-5.868-15.772-23.639-9.618-35.984-15.716-12.022-5.942-20.58-21.124-14.528-33.091 3.602-7.112 11.101-11.175 17.872-15.357 24.938-15.385 45.187-38.075 58.186-64.321 73.542 6.337 137.173 47.342 174.483 106.596z" fill="#a7eedc"/></g><g><path d="m431.646 115.048c-2.993 6.824-6.096 13.598-9.318 20.312-31.227-65.066-92.203-113.143-165.312-126.612.05-.1.1-.2.15-.299 5.702.484 11.398 1.207 17.05 2.115 4.474.719 8.929 1.61 13.349 2.574 3.286.717 6.575 1.532 9.817 2.424 6.087 1.675 12.124 3.553 18.037 5.707 4.526 1.649 8.979 3.426 13.409 5.337 7.027 3.031 14.015 6.531 20.681 10.286 11.542 6.501 22.514 14.014 32.777 22.388 5.226 4.264 10.268 8.752 15.105 13.452 10.738 10.435 20.31 21.795 28.837 34.106 1.866 2.693 3.672 5.437 5.418 8.21z" fill="#86e8d0"/></g><g><path d="m493.624 318.364h-274.895c-6.016 0-10.894 4.877-10.894 10.894v164.268c0 6.016 4.877 10.894 10.894 10.894h274.895c6.017 0 10.894-4.877 10.894-10.894v-164.268c0-6.016-4.877-10.894-10.894-10.894z" fill="#b3dafe"/></g><g><path d="m504.515 329.262v164.267c0 6.013-4.877 10.89-10.89 10.89h-19.586c6.013 0 10.89-4.877 10.89-10.89v-164.267c0-6.023-4.877-10.9-10.89-10.9h19.586c6.013.001 10.89 4.878 10.89 10.9z" fill="#8ac9fe"/></g><g><path d="m145.538 401.575c-1.048 14.227-9.867 26.937-21.051 35.866-40.455-22.816-73.308-57.545-93.78-99.436 3.602-1.696 6.944-3.801 9.877-6.545 7.213-6.734 10.874-16.322 15.982-24.762 10.505-17.349 47.857-55.34 71.053-46.371 30.149 11.673-2.085 54.402-.668 74.475 1.647 23.245 20.283 43.538 18.587 66.773z" fill="#a7eedc"/></g><g><path d="m145.538 401.575c-1.048 14.227-9.867 26.937-21.051 35.866-4.33-2.444-8.58-5.028-12.73-7.752 8.38-8.38 14.526-19.065 15.384-30.788 1.696-23.235-16.94-43.528-18.586-66.773-1.337-19.005 27.495-58.343 4.948-72.37 5.018-1.147 9.807-1.097 14.117.569 30.149 11.673-2.085 54.402-.668 74.475 1.646 23.245 20.282 43.538 18.586 66.773z" fill="#86e8d0"/></g><g><path d="m460.294 389.353c4.133 0 7.482-3.349 7.482-7.482s-3.35-7.482-7.482-7.482h-40.34v-19.631c0-4.133-3.35-7.482-7.482-7.482s-7.482 3.349-7.482 7.482v19.631h-40.34c-4.133 0-7.482 3.35-7.482 7.482 0 4.133 3.35 7.482 7.482 7.482h64.808c-3.646 9.239-10.759 24.12-23.06 38.971-3.911-4.722-7.564-9.757-10.934-15.12-2.198-3.498-6.817-4.551-10.317-2.355-3.499 2.199-4.554 6.817-2.355 10.316 4.083 6.498 8.544 12.57 13.351 18.225-7.469 7.203-16.324 14.046-26.79 19.826-3.617 1.998-4.93 6.55-2.933 10.167 1.365 2.471 3.921 3.866 6.557 3.866 1.223 0 2.464-.3 3.611-.933 11.689-6.456 21.553-14.023 29.858-21.966 8.971 8.599 18.94 15.942 29.847 21.966 1.147.633 2.387.933 3.611.933 2.636 0 5.192-1.395 6.557-3.866 1.997-3.617.685-8.169-2.933-10.167-9.785-5.404-18.736-12.006-26.8-19.747 17.16-20.092 25.466-40.473 28.722-50.116z"/><path d="m299.756 353.47c-1.547-3.766-5.176-6.196-9.247-6.196-.003 0-.006 0-.01 0-4.074.004-7.703 2.443-9.245 6.215-.022.055-.045.112-.066.167l-41.684 109.447c-1.471 3.861.467 8.184 4.329 9.655.876.334 1.777.492 2.662.492 3.015 0 5.857-1.836 6.994-4.821l8.546-22.439h56.645l8.46 22.418c1.458 3.866 5.777 5.819 9.642 4.358 3.866-1.458 5.817-5.776 4.358-9.643l-41.305-109.451c-.025-.067-.051-.135-.079-.202zm-32.022 77.555 22.753-59.74 22.545 59.74z"/><path d="m504.518 419.938c4.133 0 7.482-3.35 7.482-7.482v-83.198c0-10.133-8.243-18.376-18.376-18.376h-30.921c7.635-23.463 11.613-48.237 11.613-73.626 0-63.347-24.669-122.903-69.462-167.696s-104.349-69.462-167.696-69.462-122.903 24.669-167.696 69.462-69.462 104.349-69.462 167.696 24.669 122.903 69.462 167.697c35.994 35.994 81.525 58.97 130.891 66.616v21.957c0 10.132 8.243 18.376 18.376 18.376h274.896c10.132 0 18.376-8.243 18.376-18.376v-47.119c0-4.133-3.35-7.482-7.482-7.482s-7.482 3.35-7.482 7.482v47.119c0 1.88-1.531 3.411-3.411 3.411h-274.897c-1.881 0-3.411-1.531-3.411-3.411v-164.268c0-1.88 1.53-3.411 3.411-3.411h274.896c1.88 0 3.411 1.531 3.411 3.411v83.198c-.001 4.132 3.349 7.482 7.482 7.482zm-150.464-371.676c27.534 17.067 51.364 40.33 69.127 67.439-3.779 8.481-7.767 16.934-11.878 25.18-7.551 15.141-14.86 22.888-32.263 23.38-5.776.164-11.749.332-17.794 2.312-12.898 4.236-22.428 16.16-23.714 29.67-1.285 13.523 5.83 27.029 17.705 33.61 2.19 1.214 4.404 2.146 6.544 3.047 3.775 1.59 7.035 2.964 8.341 5.085.636 1.036.738 2.359.302 3.933-.742 2.679-2.921 5.354-5.42 6.653-5.605 2.914-13.006 2.487-20.73 1.745-2.682-.26-5.414-.517-8.188-.779-30.929-2.916-65.986-6.22-92.847-17.773-17.904-7.703-15.666-28.44-11.204-52.73.529-2.871 1.686-6.734 2.913-10.824 3.407-11.372 7.27-24.259 3.688-33.886-5.368-14.428-18.236-15.995-27.633-17.139-4.525-.551-8.8-1.072-12.048-2.676-5.213-2.577-9.736-7.705-11.523-13.064-.847-2.54-1.472-6.327.355-9.939 2.301-4.543 7.577-7.76 13.163-11.167.659-.402 1.316-.803 1.963-1.202 24.555-15.148 44.724-36.773 58.612-62.745 32.698 3.579 64.587 14.55 92.529 31.87zm92.85 262.62h-228.175c-10.132 0-18.376 8.243-18.376 18.376v127.149c-22.093-3.66-43.345-10.59-63.16-20.591 9.286-10 14.937-21.861 15.808-33.696 1.052-14.416-4.467-27.229-9.805-39.622-4.173-9.689-8.115-18.841-8.78-28.223-.361-5.124 2.778-13.988 5.815-22.56 3.558-10.045 7.459-20.332 7.78-31.107.496-16.677-9.345-24.029-17.692-27.26-17.064-6.6-37.039 5.586-50.793 16.971-3.183 2.635-3.628 7.351-.993 10.535 2.634 3.183 7.351 3.628 10.535.993 14.865-12.303 27.934-17.602 35.851-14.542 9.406 3.642 11.652 9.923 1.206 39.413-3.712 10.479-7.218 20.376-6.637 28.612.844 11.916 5.48 22.679 9.963 33.087 4.839 11.235 9.41 21.847 8.624 32.608-.697 9.466-5.898 19.198-14.452 27.268-3.793-2.257-7.52-4.625-11.174-7.101-21.836-14.797-41.013-33.521-56.297-54.999-5.703-8.014-10.903-16.426-15.542-25.215 1.829-1.24 3.516-2.586 5.08-4.049 8.991-8.409 13.18-21.134 20.436-31.034 2.443-3.333 1.723-8.015-1.61-10.459-3.333-2.442-8.015-1.722-10.459 1.612-3.117 4.255-5.791 8.986-8.269 13.618-3.13 5.852-6.085 11.379-10.316 15.328-.495.463-1.019.906-1.562 1.337-12.418-27.993-18.947-58.533-18.947-90.076 0-59.35 23.112-115.147 65.079-157.114 41.966-41.967 97.764-65.078 157.114-65.078 2.603 0 5.196.061 7.784.149-9.102 15.314-20.879 29.079-34.685 40.346-11.283 9.207-28.994 15.703-35.825 29.19-3.242 6.411-3.669 14.021-1.199 21.428 3.077 9.231 10.213 17.361 19.09 21.749 5.536 2.735 11.557 3.468 16.869 4.115 9.598 1.168 13.413 2.118 15.416 7.502 1.832 4.922-1.537 16.163-3.997 24.371-1.346 4.492-2.618 8.736-3.295 12.413-3.857 20.998-10.313 56.139 20.009 69.185 29.026 12.483 65.328 15.905 97.357 18.924 6.192.583 12.429 1.385 18.657 1.385 6.321 0 12.644-.895 18.568-3.973 6.236-3.244 11.073-9.202 12.938-15.937 1.544-5.578.844-11.175-1.976-15.765-3.823-6.213-10.176-8.888-15.281-11.038-1.858-.783-3.613-1.522-5.098-2.346-6.537-3.623-10.769-11.656-10.061-19.104.708-7.441 6.38-14.536 13.48-16.868 3.975-1.302 8.627-1.433 13.553-1.573 6.217-.175 13.264-.374 19.974-3.142 12.813-5.274 19.756-17.486 25.258-28.519 2.676-5.367 5.291-10.823 7.839-16.315 17.509 32.162 26.818 68.369 26.818 106.012.002 25.473-4.267 50.282-12.445 73.63z"/></g></g></svg>