<svg enable-background="new 0 0 256 256" height="512" viewBox="0 0 256 256" width="512" xmlns="http://www.w3.org/2000/svg"><g id="Layer_46"><g><g><g><path d="m184.911 106.015v100.026c0 2.438-1.976 4.414-4.414 4.414h-40.818v38.631c0 2.438 1.976 4.414 4.414 4.414h104.993c2.438 0 4.414-1.976 4.414-4.414v-143.071z" fill="#edf4fc"/></g></g><g><g><path d="m249.086 88.59h-64.175v17.425h68.589v-13.011c0-2.438-1.976-4.414-4.414-4.414z" fill="#5290db"/></g></g><g><g><path d="m240.012 219.5h-86.844c-1.424 0-2.578 1.154-2.578 2.578v17.844c0 1.424 1.154 2.578 2.578 2.578h86.844c1.424 0 2.578-1.154 2.578-2.578v-17.844c-.001-1.424-1.155-2.578-2.578-2.578z" fill="#9be5f9"/></g></g><g><g><path d="m240.012 186.167h-55.101v19.875c0 1.221-.496 2.326-1.298 3.125h56.399c1.424 0 2.578-1.154 2.578-2.578v-17.844c-.001-1.424-1.155-2.578-2.578-2.578z" fill="#9be5f9"/></g></g><g><g><path d="m240.012 152.833h-55.101v23h55.101c1.424 0 2.578-1.154 2.578-2.578v-17.844c-.001-1.423-1.155-2.578-2.578-2.578z" fill="#9be5f9"/></g></g><g><g><path d="m240.012 119.5h-55.101v23h55.101c1.424 0 2.578-1.154 2.578-2.578v-17.844c-.001-1.424-1.155-2.578-2.578-2.578z" fill="#9be5f9"/></g></g><g><g><path d="m116.321 62.97v100.027c0 2.438-1.976 4.414-4.414 4.414h-40.818v38.631c0 2.438 1.976 4.414 4.414 4.414h104.993c2.438 0 4.414-1.976 4.414-4.414v-143.072z" fill="#edf4fc"/></g></g><g><g><path d="m173.5 219.5h-20.333c-1.424 0-2.578 1.154-2.578 2.578v17.844c0 1.424 1.154 2.578 2.578 2.578h20.333z" fill="#70d6f9"/></g></g><g><g><path d="m2.5 19.925v143.071c0 2.438 1.976 4.414 4.414 4.414h104.993c2.438 0 4.414-1.976 4.414-4.414v-143.071z" fill="#fcdd86"/></g></g><g><g><path d="m180.497 45.545h-64.175v17.425h68.589v-13.011c0-2.438-1.977-4.414-4.414-4.414z" fill="#5290db"/></g></g><g><g><path d="m88.667 186.517h21.665c1.197 0 2.167-.97 2.167-2.167v-17c-.196.027-.39.06-.593.06h-25.406v16.939c0 1.197.97 2.168 2.167 2.168z" fill="#fc657e"/></g></g><g><g><path d="m17.637 86.783h83.547c1.863 0 3.374-1.51 3.374-3.374v-9.151c0-1.863-1.51-3.374-3.374-3.374h-83.547c-1.863 0-3.374 1.51-3.374 3.374v9.151c0 1.863 1.511 3.374 3.374 3.374z" fill="#edf4fc"/></g></g><g><g><path d="m101.184 96.884h-83.547c-1.863 0-3.374 1.51-3.374 3.374v9.151c0 1.863 1.51 3.374 3.374 3.374h83.547c1.863 0 3.374-1.51 3.374-3.374v-9.151c0-1.864-1.511-3.374-3.374-3.374z" fill="#edf4fc"/></g></g><g><g><path d="m68.183 124.084h-17.545c-3.925 0-7.107 3.182-7.107 7.107 0 3.925 3.182 7.107 7.107 7.107h17.545c3.925 0 7.107-3.182 7.107-7.107s-3.182-7.107-7.107-7.107z" fill="#87d147"/></g></g><g><g><path d="m32.5 96.884h-14.863c-1.863 0-3.374 1.51-3.374 3.374v9.151c0 1.863 1.51 3.374 3.374 3.374h14.863z" fill="#9be5f9"/></g></g><g><g><path d="m32.5 70.884h-14.863c-1.863 0-3.374 1.51-3.374 3.374v9.151c0 1.863 1.51 3.374 3.374 3.374h14.863z" fill="#9be5f9"/></g></g><g><g><path d="m111.907 2.5h-104.993c-2.438 0-4.414 1.976-4.414 4.414v13.011h113.821v-13.011c0-2.438-1.976-4.414-4.414-4.414z" fill="#5290db"/></g></g><g><g><path d="m21.17 2.5h-14.256c-2.438 0-4.414 1.976-4.414 4.414v13.011h18.67z" fill="#fc657e"/></g></g><g><g><path d="m189.826 22.396c-4.612-.859-8.247-4.42-9.124-8.938-.044-.227-.361-.227-.405 0-.877 4.518-4.512 8.079-9.124 8.938-.232.043-.232.353 0 .397 4.612.859 8.247 4.42 9.124 8.938.044.227.361.227.405 0 .877-4.518 4.512-8.079 9.124-8.938.232-.043.232-.354 0-.397z" fill="#f5c84c"/></g></g><g><g><path d="m204.853 74.374c-2.721-.507-4.866-2.608-5.383-5.274-.026-.134-.213-.134-.239 0-.517 2.666-2.662 4.767-5.384 5.274-.137.025-.137.209 0 .234 2.721.507 4.866 2.608 5.384 5.274.026.134.213.134.239 0 .517-2.666 2.662-4.767 5.383-5.274.137-.025.137-.208 0-.234z" fill="#fc657e"/></g></g><g><g><path d="m43.442 195.235h2.33v-2.33c0-1.744 1.413-3.157 3.157-3.157s3.157 1.413 3.157 3.157v2.33h2.329c1.744 0 3.157 1.413 3.157 3.157s-1.413 3.157-3.157 3.157h-2.329v2.33c0 1.744-1.413 3.157-3.157 3.157s-3.157-1.413-3.157-3.157v-2.33h-2.33c-1.744 0-3.157-1.413-3.157-3.157s1.413-3.157 3.157-3.157z" fill="#70d6f9"/></g></g><g><g><circle cx="202.721" cy="36.37" fill="#87d147" r="3.377"/></g></g><g><g><circle cx="27.721" cy="181.37" fill="#f5c84c" r="3.377"/></g></g><g><g><path d="m249.086 256h-104.993c-3.813 0-6.914-3.102-6.914-6.914v-37.93c0-1.381 1.119-2.5 2.5-2.5s2.5 1.119 2.5 2.5v37.93c0 1.055.859 1.914 1.914 1.914h104.993c1.055 0 1.914-.859 1.914-1.914v-143.071c0-1.381 1.119-2.5 2.5-2.5s2.5 1.119 2.5 2.5v143.071c0 3.812-3.102 6.914-6.914 6.914z"/></g></g><g><g><path d="m86.865 13.712h-54.079c-1.381 0-2.5-1.119-2.5-2.5s1.119-2.5 2.5-2.5h54.079c1.381 0 2.5 1.119 2.5 2.5s-1.119 2.5-2.5 2.5z"/></g></g><g><g><path d="m106.604 13.712h-9.032c-1.381 0-2.5-1.119-2.5-2.5s1.119-2.5 2.5-2.5h9.032c1.381 0 2.5 1.119 2.5 2.5s-1.12 2.5-2.5 2.5z"/></g></g><g><g><path d="m155.454 56.757h-38.079c-1.381 0-2.5-1.119-2.5-2.5s1.119-2.5 2.5-2.5h38.079c1.381 0 2.5 1.119 2.5 2.5s-1.119 2.5-2.5 2.5z"/></g></g><g><g><path d="m175.193 56.757h-9.032c-1.381 0-2.5-1.119-2.5-2.5s1.119-2.5 2.5-2.5h9.032c1.381 0 2.5 1.119 2.5 2.5s-1.119 2.5-2.5 2.5z"/></g></g><g><g><path d="m224.043 99.802h-38.078c-1.381 0-2.5-1.119-2.5-2.5s1.119-2.5 2.5-2.5h38.078c1.381 0 2.5 1.119 2.5 2.5s-1.119 2.5-2.5 2.5z"/></g></g><g><g><path d="m243.782 99.802h-9.032c-1.381 0-2.5-1.119-2.5-2.5s1.119-2.5 2.5-2.5h9.032c1.381 0 2.5 1.119 2.5 2.5s-1.119 2.5-2.5 2.5z"/></g></g><g><g><path d="m171.752 89.295h-45.129c-1.381 0-2.5-1.119-2.5-2.5s1.119-2.5 2.5-2.5h45.129c1.381 0 2.5 1.119 2.5 2.5s-1.119 2.5-2.5 2.5z"/></g></g><g><g><path d="m171.752 99.642h-45.129c-1.381 0-2.5-1.119-2.5-2.5s1.119-2.5 2.5-2.5h45.129c1.381 0 2.5 1.119 2.5 2.5s-1.119 2.5-2.5 2.5z"/></g></g><g><g><path d="m171.752 109.988h-45.129c-1.381 0-2.5-1.119-2.5-2.5s1.119-2.5 2.5-2.5h45.129c1.381 0 2.5 1.119 2.5 2.5s-1.119 2.5-2.5 2.5z"/></g></g><g><g><path d="m171.752 128.295h-45.129c-1.381 0-2.5-1.119-2.5-2.5s1.119-2.5 2.5-2.5h45.129c1.381 0 2.5 1.119 2.5 2.5s-1.119 2.5-2.5 2.5z"/></g></g><g><g><path d="m171.752 138.642h-45.129c-1.381 0-2.5-1.119-2.5-2.5s1.119-2.5 2.5-2.5h45.129c1.381 0 2.5 1.119 2.5 2.5s-1.119 2.5-2.5 2.5z"/></g></g><g><g><path d="m171.752 148.988h-45.129c-1.381 0-2.5-1.119-2.5-2.5s1.119-2.5 2.5-2.5h45.129c1.381 0 2.5 1.119 2.5 2.5s-1.119 2.5-2.5 2.5z"/></g></g><g><g><path d="m171.752 165.295h-45.129c-1.381 0-2.5-1.119-2.5-2.5s1.119-2.5 2.5-2.5h45.129c1.381 0 2.5 1.119 2.5 2.5s-1.119 2.5-2.5 2.5z"/></g></g><g><g><path d="m171.752 175.642h-45.129c-1.381 0-2.5-1.119-2.5-2.5s1.119-2.5 2.5-2.5h45.129c1.381 0 2.5 1.119 2.5 2.5s-1.119 2.5-2.5 2.5z"/></g></g><g><g><path d="m171.752 185.988h-45.129c-1.381 0-2.5-1.119-2.5-2.5s1.119-2.5 2.5-2.5h45.129c1.381 0 2.5 1.119 2.5 2.5s-1.119 2.5-2.5 2.5z"/></g></g><g><g><path d="m74.175 52.292h-29.529c-1.381 0-2.5-1.119-2.5-2.5s1.119-2.5 2.5-2.5h29.529c1.381 0 2.5 1.119 2.5 2.5s-1.119 2.5-2.5 2.5z"/></g></g><g><g><path d="m253.5 108.515h-67.969c-1.381 0-2.5-1.119-2.5-2.5s1.119-2.5 2.5-2.5h65.469v-10.511c0-1.055-.859-1.914-1.914-1.914h-63.367c-1.381 0-2.5-1.119-2.5-2.5s1.119-2.5 2.5-2.5h63.367c3.813 0 6.914 3.102 6.914 6.914v13.011c0 1.381-1.119 2.5-2.5 2.5z"/></g></g><g><g><path d="m240.012 245h-86.844c-2.8 0-5.078-2.278-5.078-5.078v-17.844c0-2.8 2.278-5.078 5.078-5.078h86.844c2.8 0 5.078 2.278 5.078 5.078v17.844c-.001 2.8-2.278 5.078-5.078 5.078zm-86.845-23c-.043 0-.078.035-.078.078v17.844c0 .043.035.078.078.078h86.844c.043 0 .078-.035.078-.078v-17.844c0-.043-.035-.078-.078-.078z"/></g></g><g><g><path d="m240.012 211.667h-56.09c-1.381 0-2.5-1.119-2.5-2.5s1.119-2.5 2.5-2.5h56.09c.043 0 .078-.035.078-.078v-17.844c0-.043-.035-.078-.078-.078h-54.22c-1.381 0-2.5-1.119-2.5-2.5s1.119-2.5 2.5-2.5h54.22c2.8 0 5.078 2.278 5.078 5.078v17.844c-.001 2.8-2.278 5.078-5.078 5.078z"/></g></g><g><g><path d="m240.012 178.333h-54.074c-1.381 0-2.5-1.119-2.5-2.5s1.119-2.5 2.5-2.5h54.074c.043 0 .078-.035.078-.078v-17.844c0-.043-.035-.078-.078-.078h-54.262c-1.381 0-2.5-1.119-2.5-2.5s1.119-2.5 2.5-2.5h54.262c2.8 0 5.078 2.278 5.078 5.078v17.844c-.001 2.801-2.278 5.078-5.078 5.078z"/></g></g><g><g><path d="m240.012 145h-54.324c-1.381 0-2.5-1.119-2.5-2.5s1.119-2.5 2.5-2.5h54.324c.043 0 .078-.035.078-.078v-17.844c0-.043-.035-.078-.078-.078h-54.304c-1.381 0-2.5-1.119-2.5-2.5s1.119-2.5 2.5-2.5h54.304c2.8 0 5.078 2.278 5.078 5.078v17.844c-.001 2.8-2.278 5.078-5.078 5.078z"/></g></g><g><g><path d="m180.497 212.955h-104.994c-3.813 0-6.914-3.102-6.914-6.914v-37.541c0-1.381 1.119-2.5 2.5-2.5s2.5 1.119 2.5 2.5v37.541c0 1.055.859 1.914 1.914 1.914h104.993c1.055 0 1.914-.859 1.914-1.914v-143.071c0-1.381 1.119-2.5 2.5-2.5s2.5 1.119 2.5 2.5v143.071c.001 3.813-3.101 6.914-6.913 6.914z"/></g></g><g><g><path d="m173.5 244.25c-1.381 0-2.5-1.119-2.5-2.5v-21.625c0-1.381 1.119-2.5 2.5-2.5s2.5 1.119 2.5 2.5v21.625c0 1.381-1.119 2.5-2.5 2.5z"/></g></g><g><g><path d="m111.907 169.91h-104.993c-3.813 0-6.914-3.102-6.914-6.914v-143.071c0-1.381 1.119-2.5 2.5-2.5s2.5 1.119 2.5 2.5v143.071c0 1.055.859 1.914 1.914 1.914h104.993c1.055 0 1.914-.859 1.914-1.914v-143.071c0-1.381 1.119-2.5 2.5-2.5s2.5 1.119 2.5 2.5v143.071c0 3.813-3.101 6.914-6.914 6.914z"/></g></g><g><g><path d="m184.911 65.47h-67.911c-1.381 0-2.5-1.119-2.5-2.5s1.119-2.5 2.5-2.5h65.411v-10.511c0-1.055-.859-1.914-1.914-1.914h-63.539c-1.381 0-2.5-1.119-2.5-2.5s1.119-2.5 2.5-2.5h63.539c3.813 0 6.914 3.102 6.914 6.914v13.011c0 1.381-1.119 2.5-2.5 2.5z"/></g></g><g><g><path d="m110.333 189.017h-21.666c-2.574 0-4.667-2.094-4.667-4.667v-16.35c0-1.381 1.119-2.5 2.5-2.5s2.5 1.119 2.5 2.5v16.017h21v-16.11c0-1.381 1.119-2.5 2.5-2.5s2.5 1.119 2.5 2.5v16.443c0 2.573-2.094 4.667-4.667 4.667z"/></g></g><g><g><path d="m101.184 89.283h-83.547c-3.239 0-5.874-2.635-5.874-5.874v-9.151c0-3.239 2.635-5.874 5.874-5.874h83.547c3.239 0 5.874 2.635 5.874 5.874v9.151c0 3.239-2.635 5.874-5.874 5.874zm-83.547-15.899c-.482 0-.874.392-.874.874v9.151c0 .481.392.874.874.874h83.547c.481 0 .874-.392.874-.874v-9.151c0-.482-.392-.874-.874-.874z"/></g></g><g><g><path d="m101.184 115.283h-83.547c-3.239 0-5.874-2.635-5.874-5.874v-9.151c0-3.239 2.635-5.874 5.874-5.874h83.547c3.239 0 5.874 2.635 5.874 5.874v9.151c0 3.239-2.635 5.874-5.874 5.874zm-83.547-15.899c-.482 0-.874.392-.874.874v9.151c0 .481.392.874.874.874h83.547c.481 0 .874-.392.874-.874v-9.151c0-.482-.392-.874-.874-.874z"/></g></g><g><g><path d="m50.638 140.8c-5.297 0-9.607-4.31-9.607-9.607 0-5.298 4.31-9.608 9.607-9.608h17.545c5.297 0 9.607 4.31 9.607 9.607s-4.31 9.607-9.607 9.607zm0-14.216c-2.541 0-4.607 2.067-4.607 4.607 0 2.541 2.067 4.608 4.607 4.608h17.545c2.541 0 4.607-2.067 4.607-4.607s-2.067-4.607-4.607-4.607h-17.545z"/></g></g><g><g><path d="m32.5 114.333c-1.381 0-2.5-1.119-2.5-2.5v-14.166c0-1.381 1.119-2.5 2.5-2.5s2.5 1.119 2.5 2.5v14.166c0 1.381-1.119 2.5-2.5 2.5z"/></g></g><g><g><path d="m32.5 88.208c-1.381 0-2.5-1.119-2.5-2.5v-14.25c0-1.381 1.119-2.5 2.5-2.5s2.5 1.119 2.5 2.5v14.25c0 1.381-1.119 2.5-2.5 2.5z"/></g></g><g><g><path d="m116.321 22.425h-113.821c-1.381 0-2.5-1.119-2.5-2.5v-13.011c0-3.812 3.102-6.914 6.914-6.914h104.993c3.813 0 6.914 3.102 6.914 6.914v13.011c0 1.381-1.119 2.5-2.5 2.5zm-111.321-5h108.821v-10.511c0-1.056-.859-1.914-1.914-1.914h-104.993c-1.055 0-1.914.858-1.914 1.914z"/></g></g><g><g><path d="m21.169 21.875c-1.381 0-2.5-1.119-2.5-2.5v-16.5c0-1.381 1.119-2.5 2.5-2.5s2.5 1.119 2.5 2.5v16.5c0 1.38-1.119 2.5-2.5 2.5z"/></g></g></g></g></svg>