<svg id="Capa_1" enable-background="new 0 0 512 512" height="512" viewBox="0 0 512 512" width="512" xmlns="http://www.w3.org/2000/svg"><g><g><path d="m12.5 430h487c2.761 0 5-2.239 5-5v-20c0-2.761-2.239-5-5-5h-487c-2.761 0-5 2.239-5 5v20c0 2.761 2.239 5 5 5z" fill="#d19a6e"/><path d="m504.5 405v20c0 2.76-2.24 5-5 5h-30c2.76 0 5-2.24 5-5v-20c0-2.76-2.24-5-5-5h30c2.76 0 5 2.24 5 5z" fill="#bc845e"/><path d="m403.5 460h55c2.761 0 5-2.239 5-5v-25h-65v25c0 2.761 2.239 5 5 5z" fill="#bc845e"/><path d="m463.5 430v25c0 2.76-2.24 5-5 5h-30c2.76 0 5-2.24 5-5v-25z" fill="#ad775c"/><path d="m108.5 460h-55c-2.761 0-5-2.239-5-5v-25h65v25c0 2.761-2.239 5-5 5z" fill="#bc845e"/><path d="m426.5 319h-341c-8.284 0-15-6.716-15-15v-237c0-8.284 6.716-15 15-15h341c8.284 0 15 6.716 15 15v237c0 8.284-6.716 15-15 15z" fill="#6f6571"/><path d="m441.5 67v237c0 8.28-6.72 15-15 15h-30c8.28 0 15-6.72 15-15v-237c0-8.28-6.72-15-15-15h30c8.28 0 15 6.72 15 15z" fill="#5d5360"/><path d="m322.5 370h-133c-5.523 0-10 4.477-10 10v20h153v-20c0-5.523-4.477-10-10-10z" fill="#6f6571"/><path d="m332.5 380v20h-30v-20c0-5.52-4.48-10-10-10h30c5.52 0 10 4.48 10 10z" fill="#5d5360"/><path d="m300.5 319h-89l-10 51h109z" fill="#5d5360"/><path d="m408.5 289h-305c-1.657 0-3-1.343-3-3v-201c0-1.657 1.343-3 3-3h305c1.657 0 3 1.343 3 3v201c0 1.657-1.343 3-3 3z" fill="#cdf2f9"/><path d="m411.5 112h-311v-27c0-1.657 1.343-3 3-3h305c1.657 0 3 1.343 3 3z" fill="#71ddf9"/><path d="m318 245.5h-124c-2.761 0-5-2.239-5-5v-80c0-2.761 2.239-5 5-5h124c2.761 0 5 2.239 5 5v80c0 2.761-2.239 5-5 5z" fill="#fff"/><path d="m114.5 355h-49c-19.33 0-35 15.67-35 35v10h119v-10c0-19.33-15.67-35-35-35z" fill="#fcf1f2"/><path d="m149.5 390v10h-30v-10c0-19.33-15.67-35-35-35h30c19.33 0 35 15.67 35 35z" fill="#f4e5e0"/><path d="m464.5 271h-93c-2.761 0-5 2.239-5 5v119c0 2.761 2.239 5 5 5h93c2.761 0 5-2.239 5-5v-119c0-2.761-2.239-5-5-5z" fill="#ffc269"/><path d="m469.5 276v119c0 2.76-2.24 5-5 5h-30c2.76 0 5-2.24 5-5v-119c0-2.76-2.24-5-5-5h30c2.76 0 5 2.24 5 5z" fill="#ffa95f"/><path d="m310.5 370h-30l-10-51h30z" fill="#514a54"/></g><g><path d="m489.5 378c12.407 0 22.5-10.093 22.5-22.5v-40c0-12.407-10.093-22.5-22.5-22.5h-12.5v-17c0-6.893-5.607-12.5-12.5-12.5h-15.5v-196.5c0-12.407-10.093-22.5-22.5-22.5h-341c-12.407 0-22.5 10.093-22.5 22.5v237c0 12.407 10.093 22.5 22.5 22.5h116.887l-7.059 36h-5.828c-9.649 0-17.5 7.851-17.5 17.5v12.5h-15v-2.5c0-23.435-19.065-42.5-42.5-42.5h-49c-23.435 0-42.5 19.065-42.5 42.5v2.5h-10.5c-6.893 0-12.5 5.607-12.5 12.5v20c0 6.893 5.607 12.5 12.5 12.5h28.5v17.5c0 6.893 5.607 12.5 12.5 12.5h55c6.893 0 12.5-5.607 12.5-12.5v-17.5h242.5c4.142 0 7.5-3.358 7.5-7.5s-3.358-7.5-7.5-7.5h-348.5v-15h482v15h-98.5c-4.142 0-7.5 3.358-7.5 7.5v25c0 6.893 5.607 12.5 12.5 12.5h55c6.893 0 12.5-5.607 12.5-12.5v-17.5h28.5c6.893 0 12.5-5.607 12.5-12.5v-20c0-6.893-5.607-12.5-12.5-12.5h-22.5v-14.5zm-383.5 74.5h-50v-15h50zm350 0h-50v-15h50zm33.5-144.5c4.136 0 7.5 3.364 7.5 7.5v40c0 4.136-3.364 7.5-7.5 7.5h-12.5v-55zm-411.5-4v-237c0-4.136 3.364-7.5 7.5-7.5h341c4.136 0 7.5 3.364 7.5 7.5v196.5h-15v-178.5c0-5.79-4.71-10.5-10.5-10.5h-305c-5.79 0-10.5 4.71-10.5 10.5v50.478c0 4.142 3.358 7.5 7.5 7.5s7.5-3.358 7.5-7.5v-15.978h296v144h-32.5c-6.893 0-12.5 5.607-12.5 12.5v5.5h-251v-111.022c0-4.142-3.358-7.5-7.5-7.5s-7.5 3.358-7.5 7.5v115.522c0 5.79 4.71 10.5 10.5 10.5h255.5v15h-273.5c-4.136 0-7.5-3.364-7.5-7.5zm326-199.5h-296v-15h296zm-81.5 258h-5.828l-7.059-36h49.387v66h-19v-12.5c0-9.649-7.851-17.5-17.5-17.5zm-104.828-36h76.656l7.059 36h-90.773zm-30.672 53.5c0-1.378 1.122-2.5 2.5-2.5h133c1.378 0 2.5 1.122 2.5 2.5v12.5h-138zm-149 10c0-15.164 12.336-27.5 27.5-27.5h49c15.164 0 27.5 12.336 27.5 27.5v2.5h-104zm336 2.5v-114h88v114z"/><path d="m194 253h124c6.893 0 12.5-5.607 12.5-12.5v-80c0-6.893-5.607-12.5-12.5-12.5h-124c-6.893 0-12.5 5.607-12.5 12.5v80c0 6.893 5.607 12.5 12.5 12.5zm2.5-90h119v75h-119z"/><path d="m293 208h-74c-4.142 0-7.5 3.358-7.5 7.5s3.358 7.5 7.5 7.5h74c4.142 0 7.5-3.358 7.5-7.5s-3.358-7.5-7.5-7.5z"/><path d="m293 178h-74c-4.142 0-7.5 3.358-7.5 7.5s3.358 7.5 7.5 7.5h74c4.142 0 7.5-3.358 7.5-7.5s-3.358-7.5-7.5-7.5z"/></g></g></svg>